<svg xmlns="http://www.w3.org/2000/svg" viewBox="0 0 230 230"><defs><style>.cls-1{fill:#2e2d2c;}.cls-2{fill:#02427e;}.cls-3{fill:none;}.cls-4{fill:#c52606;}</style></defs><title>Risorsa 2</title><g id="Livello_2" data-name="Livello 2"><g id="Livello_1-2" data-name="Livello 1"><path class="cls-1" d="M115,161.43A46.43,46.43,0,1,1,161.43,115,46.48,46.48,0,0,1,115,161.43Zm0-80A33.57,33.57,0,1,0,148.57,115,33.61,33.61,0,0,0,115,81.43Z"/><path class="cls-2" d="M230,115A115,115,0,1,1,115,0,115.13,115.13,0,0,1,230,115ZM27.14,115A87.86,87.86,0,1,0,115,27.14,88,88,0,0,0,27.14,115Z"/><path class="cls-3" d="M195.86,149.3a88.35,88.35,0,0,0,0-68.6A87.62,87.62,0,0,0,149.3,34.14a88.35,88.35,0,0,0-68.6,0A87.62,87.62,0,0,0,34.14,80.7a88.35,88.35,0,0,0,0,68.6A87.62,87.62,0,0,0,80.7,195.86a88.35,88.35,0,0,0,68.6,0,87.62,87.62,0,0,0,46.56-46.56Z"/><path class="cls-3" d="M195.86,149.3l20.34,20.33a115.47,115.47,0,0,0,0-109.26L195.86,80.7A88.35,88.35,0,0,1,195.86,149.3Z"/><path class="cls-3" d="M149.3,34.14,169.63,13.8a115.47,115.47,0,0,0-109.26,0L80.7,34.14A88.35,88.35,0,0,1,149.3,34.14Z"/><path class="cls-3" d="M149.3,195.86a88.35,88.35,0,0,1-68.6,0L60.37,216.2a115.47,115.47,0,0,0,109.26,0Z"/><path class="cls-3" d="M34.14,80.7,13.8,60.37a115.47,115.47,0,0,0,0,109.26L34.14,149.3A88.35,88.35,0,0,1,34.14,80.7Z"/><path class="cls-4" d="M177.12,52.88A87.15,87.15,0,0,1,195.86,80.7L216.2,60.37A115,115,0,0,0,169.63,13.8L149.3,34.14A87.15,87.15,0,0,1,177.12,52.88Z"/><path class="cls-4" d="M177.12,177.12a87.15,87.15,0,0,1-27.82,18.74l20.33,20.34a115,115,0,0,0,46.57-46.57L195.86,149.3A87.15,87.15,0,0,1,177.12,177.12Z"/><path class="cls-4" d="M52.88,52.88A87.15,87.15,0,0,1,80.7,34.14L60.37,13.8A115,115,0,0,0,13.8,60.37L34.14,80.7A87.15,87.15,0,0,1,52.88,52.88Z"/><path class="cls-4" d="M52.88,177.12A87.15,87.15,0,0,1,34.14,149.3L13.8,169.63A115,115,0,0,0,60.37,216.2L80.7,195.86A87.15,87.15,0,0,1,52.88,177.12Z"/></g></g></svg>