<svg xmlns="http://www.w3.org/2000/svg" viewBox="0 0 230 230"><defs><style>.cls-1{fill:#2e2d2c;}.cls-2{fill:#ab8c55;}</style></defs><title>Risorsa 3</title><g id="Livello_2" data-name="Livello 2"><g id="Livello_1-2" data-name="Livello 1"><path class="cls-1" d="M115,161.43A46.43,46.43,0,1,1,161.43,115,46.48,46.48,0,0,1,115,161.43Zm0-80A33.57,33.57,0,1,0,148.57,115,33.61,33.61,0,0,0,115,81.43Z"/><path class="cls-2" d="M115,230A115,115,0,1,1,230,115,115.13,115.13,0,0,1,115,230Zm0-202.86A87.86,87.86,0,1,0,202.86,115,88,88,0,0,0,115,27.14Z"/></g></g></svg>