<svg xmlns="http://www.w3.org/2000/svg" viewBox="0 0 2069.2 307"><defs><style>.cls-1{fill:#000}</style></defs><g id="Livello_2" data-name="Livello 2"><g id="Livello_1-2" data-name="Livello 1"><path class="cls-1" d="M1480.87 139.94q-1 4.5-2.3 8.28c-.83 2.53-1.59 4.74-2.29 6.66l-19 50.27h47.2l-19-50.37a140.62 140.62 0 0 1-4.61-14.84z"/><path class="cls-1" d="M2044.11 62h-859.83a25.08 25.08 0 0 0-25.08 25.09v194.82a25.08 25.08 0 0 0 25.08 25.09h859.83a25.09 25.09 0 0 0 25.09-25.09V87.09A25.09 25.09 0 0 0 2044.11 62zm-674.18 194.86h-20.2l-32.37-99c-.38-1.09-.75-2.27-1.1-3.55s-.68-2.64-1-4.11c-.32 1.47-.66 2.84-1 4.11s-.72 2.46-1.1 3.55l-32.65 99h-20.2L1217.4 119h18.76a8.21 8.21 0 0 1 4.84 1.39 6.68 6.68 0 0 1 2.63 3.78l25.86 88.38c.51 1.92 1 4 1.43 6.23s.9 4.56 1.34 7c.45-2.43 1-4.77 1.49-7s1.13-4.32 1.77-6.18l29.59-88.38a8.07 8.07 0 0 1 2.68-3.54 7.36 7.36 0 0 1 4.79-1.63h6.51a7.35 7.35 0 0 1 4.79 1.49 9.64 9.64 0 0 1 2.77 3.68l29.5 88.38c.63 1.86 1.22 3.85 1.77 6s1 4.39 1.48 6.75l1.29-6.75c.42-2.14.88-4.13 1.39-6l25.76-88.38a6.77 6.77 0 0 1 2.63-3.64 7.91 7.91 0 0 1 4.84-1.53h17.52zm159.68 0a7.35 7.35 0 0 1-4.79-1.49 9.54 9.54 0 0 1-2.77-3.68l-11.49-30.45h-59.37l-11.49 30.45a9.23 9.23 0 0 1-2.68 3.54 7.13 7.13 0 0 1-4.79 1.63h-17.33L1469.57 119h22.7l54.67 137.89zm124 0H1574V119h22.41v119.09h57.26zm108.16 0h-79.66V119h22.4v119.09h57.26zm114.49 0h-86V119h86v18.1h-63.49v41.56h50.75v17.52h-50.75v42.61h63.58zm133-119.22h-43v119.22H1944V137.64h-43.09V119h108.4z"/><path class="cls-1" transform="rotate(-45 503.61164287 82.08722736)" d="M486.58 76.59h33.98V87.6h-33.98z"/><path class="cls-1" d="M174.15 61.89h25.71V307h-20.57L25.71 110.57V307H0V61.89h20.57l153.58 196.43zM538.39 183.93c0 67.19-54.5 121.7-121.35 121.7a121.7 121.7 0 1 1 0-243.39c66.85 0 121.35 54.5 121.35 121.69zm-25 0a96.33 96.33 0 1 0-192.66 0c0 53.14 43.19 96.67 96.33 96.67s96.31-43.53 96.31-96.67zM822.76 307h-36L670.9 191.13l-11.31 11.66V307h-25.71V61.89h25.71v104.56L764.14 61.89h36L689.07 173.31zM1055.85 61.89h25.37v148.78a96.58 96.58 0 0 1-192.66 9.6h-.34V61.89h25.71V211.7c0 38.74 32.22 69.93 71 69.93 38.39 0 71-31.19 71-69.59V61.89zM538.61 0a41.05 41.05 0 1 0 41 41.05 41.05 41.05 0 0 0-41-41.05zm0 67.08a25 25 0 1 1 25-25 25 25 0 0 1-25 25z"/></g></g></svg>