<svg xmlns="http://www.w3.org/2000/svg" viewBox="0 0 2304 307"><defs><style>.cls-1{fill:#fff;}</style></defs><title>Noku_IndexRisorsa 3</title><g id="Livello_2" data-name="Livello 2"><g id="Livello_1-2" data-name="Livello 1"><rect class="cls-1" x="471.03" y="76.5" width="33.94" height="11" transform="translate(84.97 369.11) rotate(-45)"/><path class="cls-1" d="M173.94,61.82h25.68V306.64H179.08L25.68,110.44v196.2H0V61.82H20.54L173.94,258Z"/><path class="cls-1" d="M522.78,183.72c0,67.11-54.44,121.55-121.21,121.55a121.56,121.56,0,1,1,0-243.11C468.34,62.16,522.78,116.61,522.78,183.72Zm-25,0a96.22,96.22,0,1,0-192.43,0c0,53.07,43.14,96.56,96.22,96.56S497.78,236.79,497.78,183.72Z"/><path class="cls-1" d="M791.83,306.64h-36L640.15,190.91l-11.3,11.64V306.64H603.17V61.82h25.68V166.26L733.28,61.82h36L658.29,173.1Z"/><path class="cls-1" d="M1009.66,61.82H1035V210.43A96.47,96.47,0,0,1,842.57,220h-.35V61.82H867.9V211.45c0,38.7,32.19,69.86,70.88,69.86,38.35,0,70.88-31.16,70.88-69.51v-150Z"/><path class="cls-1" d="M523,0a41,41,0,1,0,41,41A41,41,0,0,0,523,0Zm0,67a25,25,0,1,1,25-25A25,25,0,0,1,523,67Z"/><path class="cls-1" d="M2278.91,62H1137.09A25.09,25.09,0,0,0,1112,87.09V281.91A25.09,25.09,0,0,0,1137.09,307H2278.91A25.09,25.09,0,0,0,2304,281.91V87.09A25.09,25.09,0,0,0,2278.91,62ZM1276.49,180.4a37.72,37.72,0,0,1-10,14.07,46.77,46.77,0,0,1-16.42,9.2,71.71,71.71,0,0,1-22.84,3.3h-20.49v49.89h-22.41V119h42.9a77.23,77.23,0,0,1,23.41,3.16,45.17,45.17,0,0,1,16.38,8.86,35.33,35.33,0,0,1,9.62,13.69,50.64,50.64,0,0,1-.19,35.72ZM1389,256.86h-79.67V119h22.41V238.09H1389Zm135.7,0a7.34,7.34,0,0,1-4.79-1.49,9.67,9.67,0,0,1-2.78-3.68l-11.49-30.45h-59.36l-11.49,30.45a9.26,9.26,0,0,1-2.69,3.54,7.09,7.09,0,0,1-4.78,1.63H1410L1464.7,119h22.69l54.68,137.89Zm122.93-119.22h-43V256.86h-22.31V137.64h-43.09V119h108.4Zm114.38-.57h-63.48v44.14h53.91v18.1h-53.91v57.55h-22.5V119h86Zm153.71,79.09a65.26,65.26,0,0,1-14,22.26A64,64,0,0,1,1880,253a78,78,0,0,1-56.3,0,63.57,63.57,0,0,1-35.86-36.87,82.59,82.59,0,0,1,0-56.49,65.4,65.4,0,0,1,14.07-22.31,64.23,64.23,0,0,1,21.79-14.65,77.82,77.82,0,0,1,56.3,0,63.63,63.63,0,0,1,21.74,14.65,65.76,65.76,0,0,1,14,22.31,82.59,82.59,0,0,1,0,56.49Zm124.59,40.7q-5.94,0-8.62-4.6l-32.17-46.44a10.79,10.79,0,0,0-3.55-3.45,12.27,12.27,0,0,0-5.74-1.05h-12.45v55.54h-22.4V119H1996a86.82,86.82,0,0,1,23.42,2.78,44.47,44.47,0,0,1,16.13,7.9,31.22,31.22,0,0,1,9.34,12.3,43.48,43.48,0,0,1,.86,29.4,37.65,37.65,0,0,1-6.22,11.3,40.12,40.12,0,0,1-10,8.81,50.69,50.69,0,0,1-13.5,5.84,22.44,22.44,0,0,1,7.08,7l37.25,52.57Zm194,0h-19.72V162.35c0-1.53.05-3.21.14-5s.24-3.65.43-5.51l-44.33,81.88c-1.73,3.38-4.37,5.07-8,5.07h-3.16a8.3,8.3,0,0,1-7.95-5.07l-45-82.07c.19,1.86.33,3.71.43,5.56s.14,3.57.14,5.17v94.51h-19.72V119h16.76a15.61,15.61,0,0,1,4.59.53q1.64.52,3,3.21l44.24,80.14q1.44,2.78,2.73,5.7t2.34,6c.77-2,1.58-4.07,2.45-6.08s1.77-3.94,2.72-5.79l43.57-79.95c.9-1.79,1.88-2.86,3-3.21a15.69,15.69,0,0,1,4.6-.53h16.75Z"/><path class="cls-1" d="M1476,139.94q-1.05,4.5-2.3,8.28c-.83,2.53-1.59,4.74-2.3,6.66l-19,50.27h47.21l-19-50.37A138.31,138.31,0,0,1,1476,139.94Z"/><path class="cls-1" d="M1885.45,150.47a40.2,40.2,0,0,0-14.51-10.15,53.3,53.3,0,0,0-38.2,0,40.56,40.56,0,0,0-14.56,10.15,45.44,45.44,0,0,0-9.29,16.09,65.52,65.52,0,0,0-3.25,21.35,65.8,65.8,0,0,0,3.25,21.45,44.86,44.86,0,0,0,9.29,16,40.1,40.1,0,0,0,14.56,10.06,54,54,0,0,0,38.2,0,39.74,39.74,0,0,0,14.51-10.06,44.68,44.68,0,0,0,9.19-16,66.64,66.64,0,0,0,3.21-21.45,66.36,66.36,0,0,0-3.21-21.35A45.26,45.26,0,0,0,1885.45,150.47Z"/><path class="cls-1" d="M2024.17,170a26.9,26.9,0,0,0,1.91-10.29q0-11.29-7.47-17.24t-22.6-5.94h-18.19V185h17.62a43.3,43.3,0,0,0,13.41-1.87,26.94,26.94,0,0,0,9.57-5.21A21.39,21.39,0,0,0,2024.17,170Z"/><path class="cls-1" d="M1250.06,143.39a24.9,24.9,0,0,0-9.43-5.12,45.17,45.17,0,0,0-13.36-1.78h-20.49v52.76h20.49a41.25,41.25,0,0,0,13.17-1.91,25.93,25.93,0,0,0,9.48-5.41,22.26,22.26,0,0,0,5.7-8.47,30.91,30.91,0,0,0,1.91-11.11,29.48,29.48,0,0,0-1.87-10.82A21,21,0,0,0,1250.06,143.39Z"/></g></g></svg>